<svg xmlns="http://www.w3.org/2000/svg" width="24" height="24" viewBox="0 0 24 24" fill="white"><path d="M12.031 6.172c-3.181 0-5.767 2.586-5.768 5.766-.001 1.298.38 2.27 1.038 3.284l-.569 2.1c-.123.454.28.858.733.734l2.126-.587c.918.573 2.011.92 3.245.922 3.181 0 5.767-2.587 5.768-5.766.001-3.18-2.587-5.765-5.768-5.765zm3.101 8.24c-.113.318-.553.587-.852.628-.291.04-.582.025-.916-.101-1.24-.471-2.191-1.422-2.662-2.662-.126-.334-.141-.625-.101-.916.039-.299.308-.739.626-.852.122-.043.256-.046.38-.01l.454.123c.123.033.226.155.244.281l.123.852c.018.126-.04.256-.145.334l-.403.299c-.067.05-.094.137-.067.21.36.96 1.135 1.735 2.095 2.095.073.027.16 0 .21-.067l.299-.403c.078-.105.208-.163.334-.145l.852.123c.126.018.248.121.281.244l.123.454c.036.124.033.258-.01.38z"/></svg>
