<svg viewBox="0 0 100 80" xmlns="http://www.w3.org/2000/svg">
  <path d="M96.7 4.1c-1.2-1.2-3.2-1.2-4.4 0L67.1 29.3c-1.2 1.2-1.2 3.2 0 4.4L92.3 59c1.2 1.2 3.2 1.2 4.4 0l1.3-1.3c1.2-1.2 1.2-3.2 0-4.4L78.6 33.7c-1.2-1.2-1.2-3.2 0-4.4l11.4-11.4c1.2-1.2 1.2-3.2 0-4.4l-1.3-1.3c-.6-.6-1.5-.9-2.2-.9s-1.6.3-2.2.9L73.4 23.5c-1.2 1.2-3.2 1.2-4.4 0L43.8 17.1c-1.2 1.2-1.2 3.2 0 4.4l13.1 13.1c1.2 1.2 1.2 3.2 0 4.4L44.2 51.7c-1.2 1.2-1.2 3.2 0 4.4l6.4 6.4c1.2 1.2 3.2 1.2 4.4 0l13.1-13.1c1.2-1.2 3.2-1.2 4.4 0l13.1 13.1c1.2 1.2 3.2 1.2 4.4 0l1.3-1.3c1.2-1.2 1.2-3.2 0-4.4L78.6 44.1c-1.2-1.2-1.2-3.2 0-4.4l11.4-11.4c1.2-1.2 1.2-3.2 0-4.4l-1.3-1.3z" fill="#E2136E"/>
</svg>